# xmcd
#
# Track frame offsets: 
#        150
#        14459
#        34022
#        56818
#        75468
#        99162
#        116232
#        131462
#        150095
#        166284
#        182306
#        197949
#        218491
#        235573
#        250453
#        268212
#        288087
#        306149
#
# Disc length: 4342 seconds
#
# Revision: 0
# Processed by: cddbd v1.5.2PL0 Copyright (c) Steve Scherf et al.
# Submitted via: ExactAudioCopy v0.99pb5
#
DISCID=e510f412
DTITLE=Blonker - Star Profile
DYEAR=1995
DGENRE=Instrumental Pop
TTITLE0=Sidewalk Cafe
TTITLE1=Amazonas
TTITLE2=Fantasia
TTITLE3=In Balance
TTITLE4=Time To Remember
TTITLE5=Dragon Fly
TTITLE6=Seven Steps
TTITLE7=Morning Breeze
TTITLE8=You And Me
TTITLE9=Merlin
TTITLE10=The Rattlesnake
TTITLE11=Anak
TTITLE12=Dreaming
TTITLE13=Inspired
TTITLE14=Alhambra
TTITLE15=Indigo
TTITLE16=Water Garden
TTITLE17=Dresden
EXTD=
EXTT0=
EXTT1=
EXTT2=
EXTT3=
EXTT4=
EXTT5=
EXTT6=
EXTT7=
EXTT8=
EXTT9=
EXTT10=
EXTT11=
EXTT12=
EXTT13=
EXTT14=
EXTT15=
EXTT16=
EXTT17=
PLAYORDER=
